<svg width="331" height="84" viewBox="0 0 331 84" fill="none" xmlns="http://www.w3.org/2000/svg">
<path d="M72.44 61.532H64.12V28.616H78.784C82.0773 28.616 84.712 29.0147 86.688 29.812C88.664 30.6093 90.0853 31.9093 90.952 33.712C91.8187 35.5147 92.252 37.9587 92.252 41.044C92.252 43.956 91.8187 46.3307 90.952 48.168C90.0853 49.9707 88.664 51.3053 86.688 52.172C84.712 53.0387 82.0773 53.472 78.784 53.472H72.44V61.532ZM77.432 35.428H72.44V46.66H77.432C79.8933 46.66 81.54 46.244 82.372 45.412C83.204 44.58 83.62 43.124 83.62 41.044C83.62 39.068 83.204 37.6467 82.372 36.78C81.54 35.8787 79.8933 35.428 77.432 35.428ZM95.6708 61.532V28.616H120.111V35.376H103.991V41.616H117.979V48.376H103.991V54.772H120.111V61.532H95.6708ZM131.581 61.532H123.261V28.616H138.965C143.09 28.616 146.089 29.552 147.961 31.424C149.867 33.2613 150.821 35.9827 150.821 39.588C150.821 42.292 150.145 44.6147 148.793 46.556C147.441 48.4627 145.655 49.6587 143.437 50.144L143.385 50.3C144.251 50.8547 145.205 51.7733 146.245 53.056C147.285 54.3387 148.307 55.7427 149.313 57.268C150.353 58.7587 151.271 60.1627 152.069 61.48V61.532H142.397L136.781 53.212C136.295 52.484 135.897 51.964 135.585 51.652C135.307 51.34 134.961 51.1493 134.545 51.08C134.163 51.0107 133.539 50.976 132.673 50.976H131.581V61.532ZM137.613 35.376H131.581V44.216H137.613C139.346 44.216 140.542 43.8693 141.201 43.176C141.894 42.4827 142.241 41.356 142.241 39.796C142.241 38.236 141.894 37.1093 141.201 36.416C140.542 35.7227 139.346 35.376 137.613 35.376ZM164.096 61.532H155.776V28.616H164.096V61.532ZM193.894 54.408V60.96C192.23 61.3067 190.601 61.5667 189.006 61.74C187.412 61.9133 185.522 62 183.338 62C180.53 62 178.156 61.7573 176.214 61.272C174.308 60.7867 172.765 59.9373 171.586 58.724C170.442 57.476 169.61 55.7253 169.09 53.472C168.57 51.2187 168.31 48.324 168.31 44.788C168.31 41.3907 168.57 38.6 169.09 36.416C169.61 34.232 170.442 32.5507 171.586 31.372C172.765 30.1587 174.308 29.3267 176.214 28.876C178.156 28.3907 180.53 28.148 183.338 28.148C185.522 28.148 187.412 28.2347 189.006 28.408C190.601 28.5467 192.23 28.8067 193.894 29.188V35.948L193.738 36.052C192.282 35.7053 190.878 35.4627 189.526 35.324C188.174 35.1507 186.51 35.064 184.534 35.064C182.94 35.064 181.622 35.1853 180.582 35.428C179.577 35.636 178.78 36.0693 178.19 36.728C177.601 37.3867 177.185 38.3573 176.942 39.64C176.734 40.9227 176.63 42.6387 176.63 44.788C176.63 47.0413 176.734 48.8613 176.942 50.248C177.185 51.6 177.601 52.6227 178.19 53.316C178.78 54.0093 179.577 54.4773 180.582 54.72C181.622 54.9627 182.94 55.084 184.534 55.084C186.476 55.084 188.122 55.032 189.474 54.928C190.861 54.7893 192.248 54.5467 193.634 54.2L193.894 54.408ZM196.256 45.048C196.256 40.8533 196.724 37.5253 197.66 35.064C198.63 32.6027 200.277 30.8347 202.6 29.76C204.957 28.6853 208.233 28.148 212.428 28.148C215.582 28.148 218.2 28.4427 220.28 29.032C222.36 29.6213 224.006 30.5747 225.22 31.892C226.433 33.2093 227.282 34.96 227.768 37.144C228.288 39.2933 228.548 41.928 228.548 45.048C228.548 48.2027 228.288 50.872 227.768 53.056C227.282 55.2053 226.433 56.9387 225.22 58.256C224.006 59.5733 222.36 60.5267 220.28 61.116C218.2 61.7053 215.582 62 212.428 62C209.273 62 206.656 61.7053 204.576 61.116C202.496 60.5267 200.849 59.5733 199.636 58.256C198.422 56.9387 197.556 55.2053 197.036 53.056C196.516 50.872 196.256 48.2027 196.256 45.048ZM212.428 54.72C214.646 54.72 216.31 54.4427 217.42 53.888C218.529 53.3333 219.274 52.3627 219.656 50.976C220.037 49.5547 220.228 47.5787 220.228 45.048C220.228 42.552 220.037 40.6107 219.656 39.224C219.274 37.8373 218.529 36.8667 217.42 36.312C216.31 35.7227 214.646 35.428 212.428 35.428C210.244 35.428 208.58 35.7227 207.436 36.312C206.326 36.8667 205.564 37.8373 205.148 39.224C204.766 40.6107 204.576 42.552 204.576 45.048C204.576 47.5787 204.766 49.5547 205.148 50.976C205.564 52.3627 206.326 53.3333 207.436 53.888C208.58 54.4427 210.244 54.72 212.428 54.72ZM254.077 28.616H262.397V61.532H254.129L244.769 47.596C244.041 46.4867 243.434 45.5507 242.949 44.788C242.463 44.0253 242.013 43.2627 241.597 42.5C241.181 41.7373 240.713 40.836 240.193 39.796L240.037 40.004C240.522 41.668 240.817 43.228 240.921 44.684C241.025 46.1053 241.077 47.492 241.077 48.844V61.532H232.757V28.616H241.025L250.385 42.552C251.113 43.6267 251.719 44.5627 252.205 45.36C252.69 46.1227 253.141 46.8853 253.557 47.648C253.973 48.4107 254.441 49.312 254.961 50.352L255.117 50.144C254.77 48.688 254.51 47.284 254.337 45.932C254.163 44.5453 254.077 43.176 254.077 41.824V28.616Z" fill="black"/>
<path d="M73 59.55H65V27.9H79.1C82.2667 27.9 84.8 28.2833 86.7 29.05C88.6 29.8167 89.9667 31.0667 90.8 32.8C91.6333 34.5333 92.05 36.8833 92.05 39.85C92.05 42.65 91.6333 44.9333 90.8 46.7C89.9667 48.4333 88.6 49.7167 86.7 50.55C84.8 51.3833 82.2667 51.8 79.1 51.8H73V59.55ZM77.8 34.45H73V45.25H77.8C80.1667 45.25 81.75 44.85 82.55 44.05C83.35 43.25 83.75 41.85 83.75 39.85C83.75 37.95 83.35 36.5833 82.55 35.75C81.75 34.8833 80.1667 34.45 77.8 34.45ZM95.8908 59.55V27.9H119.391V34.4H103.891V40.4H117.341V46.9H103.891V53.05H119.391V59.55H95.8908ZM130.973 59.55H122.973V27.9H138.073C142.04 27.9 144.923 28.8 146.723 30.6C148.556 32.3667 149.473 34.9833 149.473 38.45C149.473 41.05 148.823 43.2833 147.523 45.15C146.223 46.9833 144.506 48.1333 142.373 48.6L142.323 48.75C143.156 49.2833 144.073 50.1667 145.073 51.4C146.073 52.6333 147.056 53.9833 148.023 55.45C149.023 56.8833 149.906 58.2333 150.673 59.5V59.55H141.373L135.973 51.55C135.506 50.85 135.123 50.35 134.823 50.05C134.556 49.75 134.223 49.5667 133.823 49.5C133.456 49.4333 132.856 49.4 132.023 49.4H130.973V59.55ZM136.773 34.4H130.973V42.9H136.773C138.44 42.9 139.59 42.5667 140.223 41.9C140.89 41.2333 141.223 40.15 141.223 38.65C141.223 37.15 140.89 36.0667 140.223 35.4C139.59 34.7333 138.44 34.4 136.773 34.4ZM162.792 59.55H154.792V27.9H162.792V59.55ZM191.997 52.7V59C190.397 59.3333 188.831 59.5833 187.297 59.75C185.764 59.9167 183.947 60 181.847 60C179.147 60 176.864 59.7667 174.997 59.3C173.164 58.8333 171.681 58.0167 170.547 56.85C169.447 55.65 168.647 53.9667 168.147 51.8C167.647 49.6333 167.397 46.85 167.397 43.45C167.397 40.1833 167.647 37.5 168.147 35.4C168.647 33.3 169.447 31.6833 170.547 30.55C171.681 29.3833 173.164 28.5833 174.997 28.15C176.864 27.6833 179.147 27.45 181.847 27.45C183.947 27.45 185.764 27.5333 187.297 27.7C188.831 27.8333 190.397 28.0833 191.997 28.45V34.95L191.847 35.05C190.447 34.7167 189.097 34.4833 187.797 34.35C186.497 34.1833 184.897 34.1 182.997 34.1C181.464 34.1 180.197 34.2167 179.197 34.45C178.231 34.65 177.464 35.0667 176.897 35.7C176.331 36.3333 175.931 37.2667 175.697 38.5C175.497 39.7333 175.397 41.3833 175.397 43.45C175.397 45.6167 175.497 47.3667 175.697 48.7C175.931 50 176.331 50.9833 176.897 51.65C177.464 52.3167 178.231 52.7667 179.197 53C180.197 53.2333 181.464 53.35 182.997 53.35C184.864 53.35 186.447 53.3 187.747 53.2C189.081 53.0667 190.414 52.8333 191.747 52.5L191.997 52.7ZM194.821 43.7C194.821 39.6667 195.271 36.4667 196.171 34.1C197.105 31.7333 198.688 30.0333 200.921 29C203.188 27.9667 206.338 27.45 210.371 27.45C213.405 27.45 215.921 27.7333 217.921 28.3C219.921 28.8667 221.505 29.7833 222.671 31.05C223.838 32.3167 224.655 34 225.121 36.1C225.621 38.1667 225.871 40.7 225.871 43.7C225.871 46.7333 225.621 49.3 225.121 51.4C224.655 53.4667 223.838 55.1333 222.671 56.4C221.505 57.6667 219.921 58.5833 217.921 59.15C215.921 59.7167 213.405 60 210.371 60C207.338 60 204.821 59.7167 202.821 59.15C200.821 58.5833 199.238 57.6667 198.071 56.4C196.905 55.1333 196.071 53.4667 195.571 51.4C195.071 49.3 194.821 46.7333 194.821 43.7ZM210.371 53C212.505 53 214.105 52.7333 215.171 52.2C216.238 51.6667 216.955 50.7333 217.321 49.4C217.688 48.0333 217.871 46.1333 217.871 43.7C217.871 41.3 217.688 39.4333 217.321 38.1C216.955 36.7667 216.238 35.8333 215.171 35.3C214.105 34.7333 212.505 34.45 210.371 34.45C208.271 34.45 206.671 34.7333 205.571 35.3C204.505 35.8333 203.771 36.7667 203.371 38.1C203.005 39.4333 202.821 41.3 202.821 43.7C202.821 46.1333 203.005 48.0333 203.371 49.4C203.771 50.7333 204.505 51.6667 205.571 52.2C206.671 52.7333 208.271 53 210.371 53ZM250.972 27.9H258.972V59.55H251.022L242.022 46.15C241.322 45.0833 240.739 44.1833 240.272 43.45C239.805 42.7167 239.372 41.9833 238.972 41.25C238.572 40.5167 238.122 39.65 237.622 38.65L237.472 38.85C237.939 40.45 238.222 41.95 238.322 43.35C238.422 44.7167 238.472 46.05 238.472 47.35V59.55H230.472V27.9H238.422L247.422 41.3C248.122 42.3333 248.705 43.2333 249.172 44C249.639 44.7333 250.072 45.4667 250.472 46.2C250.872 46.9333 251.322 47.8 251.822 48.8L251.972 48.6C251.639 47.2 251.389 45.85 251.222 44.55C251.055 43.2167 250.972 41.9 250.972 40.6V27.9Z" fill="white"/>
</svg>
