<svg width="28" height="28" viewBox="0 0 28 28" fill="none" xmlns="http://www.w3.org/2000/svg">
<path d="M14.0007 25.6663C20.444 25.6663 25.6673 20.443 25.6673 13.9997C25.6673 7.55635 20.444 2.33301 14.0007 2.33301C7.55733 2.33301 2.33398 7.55635 2.33398 13.9997C2.33398 20.443 7.55733 25.6663 14.0007 25.6663Z" fill="#00ACC1"/>
<path d="M13.9993 23.3337C19.154 23.3337 23.3327 19.155 23.3327 14.0003C23.3327 8.84567 19.154 4.66699 13.9993 4.66699C8.84469 4.66699 4.66602 8.84567 4.66602 14.0003C4.66602 19.155 8.84469 23.3337 13.9993 23.3337Z" fill="#EEEEEE"/>
<path d="M13.416 6.41699H14.5827V14.0003H13.416V6.41699Z" fill="black"/>
<path d="M18.2497 17.2985L17.3018 18.247L13.5078 14.453L14.4563 13.5039L18.2497 17.2985Z" fill="black"/>
<path d="M14.0007 15.1663C14.645 15.1663 15.1673 14.644 15.1673 13.9997C15.1673 13.3553 14.645 12.833 14.0007 12.833C13.3563 12.833 12.834 13.3553 12.834 13.9997C12.834 14.644 13.3563 15.1663 14.0007 15.1663Z" fill="black"/>
<path d="M13.9993 14.5837C14.3215 14.5837 14.5827 14.3225 14.5827 14.0003C14.5827 13.6782 14.3215 13.417 13.9993 13.417C13.6772 13.417 13.416 13.6782 13.416 14.0003C13.416 14.3225 13.6772 14.5837 13.9993 14.5837Z" fill="#00ACC1"/>
</svg>
