<svg width="50" height="50" viewBox="0 0 50 50" fill="none" xmlns="http://www.w3.org/2000/svg">
<circle cx="25" cy="25" r="25" fill="white"/>
<g clip-path="url(#clip0_125_126)">
<path d="M20.4508 10.9864C17.4533 12.0263 14.8683 13.9999 13.0755 16.6175C11.2826 19.2351 10.3764 22.3586 10.49 25.5293C10.6035 28.7 11.7309 31.7507 13.7064 34.2333C15.6819 36.7159 18.4015 38.4996 21.4657 39.3224C23.9499 39.9634 26.5526 39.9915 29.05 39.4044C31.3125 38.8962 33.4042 37.8092 35.1203 36.2497C36.9065 34.5771 38.2029 32.4493 38.8703 30.095C39.5958 27.5349 39.7249 24.8425 39.2477 22.2247H25.2977V28.0114H33.3766C33.2151 28.9344 32.8691 29.8152 32.3593 30.6013C31.8495 31.3874 31.1863 32.0626 30.4094 32.5864C29.4229 33.239 28.3108 33.6781 27.1446 33.8755C25.9749 34.093 24.7752 34.093 23.6055 33.8755C22.42 33.6304 21.2985 33.1411 20.3125 32.4388C18.7285 31.3175 17.5391 29.7245 16.9141 27.8872C16.2785 26.0155 16.2785 23.9863 16.9141 22.1145C17.359 20.8026 18.0945 19.608 19.0657 18.62C20.177 17.4686 21.5841 16.6456 23.1324 16.2413C24.6808 15.8369 26.3106 15.8669 27.843 16.3278C29.0401 16.6953 30.1348 17.3374 31.0399 18.2028C31.9508 17.2966 32.8602 16.388 33.768 15.477C34.2368 14.9872 34.7477 14.5208 35.2094 14.0192C33.8279 12.7336 32.2063 11.7333 30.4375 11.0755C27.2165 9.90593 23.6922 9.8745 20.4508 10.9864Z" fill="white"/>
<path d="M20.4504 10.9866C23.6915 9.87391 27.2158 9.90451 30.4371 11.0733C32.2062 11.7356 33.8271 12.7407 35.2066 14.0311C34.7379 14.5327 34.2434 15.0014 33.7652 15.4889C32.8559 16.3967 31.9473 17.3014 31.0395 18.203C30.1344 17.3375 29.0397 16.6955 27.8426 16.328C26.3106 15.8654 24.6809 15.8338 23.1322 16.2365C21.5834 16.6391 20.1755 17.4606 19.0629 18.6108C18.0917 19.5988 17.3562 20.7933 16.9113 22.1053L12.0527 18.3436C13.7918 14.8949 16.8029 12.257 20.4504 10.9866Z" fill="#E33629"/>
<path d="M10.7643 22.0703C11.0254 20.7761 11.4589 19.5227 12.0533 18.3438L16.9119 22.1148C16.2763 23.9866 16.2763 26.0158 16.9119 27.8875C15.2932 29.1375 13.6736 30.3938 12.0533 31.6562C10.5654 28.6945 10.1116 25.3199 10.7643 22.0703Z" fill="#F8BD00"/>
<path d="M25.2979 22.2227H39.2479C39.7251 24.8405 39.596 27.5328 38.8706 30.093C38.2032 32.4472 36.9067 34.575 35.1206 36.2477C33.5526 35.0242 31.9776 33.8102 30.4096 32.5867C31.187 32.0624 31.8505 31.3865 32.3604 30.5995C32.8702 29.8126 33.216 28.9308 33.3768 28.007H25.2979C25.2956 26.0805 25.2979 24.1516 25.2979 22.2227Z" fill="#587DBD"/>
<path d="M12.0508 31.6564C13.6711 30.4064 15.2906 29.1502 16.9094 27.8877C17.5356 29.7257 18.7267 31.3187 20.3125 32.4393C21.3016 33.1383 22.4255 33.6236 23.6125 33.8643C24.7822 34.0817 25.9819 34.0817 27.1516 33.8643C28.3178 33.6668 29.4299 33.2278 30.4164 32.5752C31.9844 33.7986 33.5594 35.0127 35.1273 36.2361C33.4115 37.7964 31.3197 38.8843 29.057 39.3932C26.5596 39.9803 23.9569 39.9521 21.4727 39.3111C19.5079 38.7865 17.6727 37.8617 16.082 36.5947C14.3984 35.2581 13.0233 33.5736 12.0508 31.6564Z" fill="#319F43"/>
</g>
<defs>
<clipPath id="clip0_125_126">
<rect width="30" height="30" fill="white" transform="translate(10 10)"/>
</clipPath>
</defs>
</svg>
