<svg width="45" height="45" viewBox="0 0 45 45" fill="none" xmlns="http://www.w3.org/2000/svg">
<path d="M24.7568 5.37326C24.1373 4.81668 23.3339 4.50879 22.5011 4.50879C21.6683 4.50879 20.865 4.81668 20.2455 5.37326L7.8705 16.4928C7.51824 16.809 7.23644 17.1957 7.0434 17.6279C6.85036 18.0602 6.75039 18.5281 6.75 19.0015V34.8753C6.75 35.7704 7.10558 36.6288 7.73851 37.2617C8.37145 37.8947 9.22989 38.2503 10.125 38.2503H14.625C15.5201 38.2503 16.3786 37.8947 17.0115 37.2617C17.6444 36.6288 18 35.7704 18 34.8753V25.8753C18 25.5769 18.1185 25.2907 18.3295 25.0798C18.5405 24.8688 18.8266 24.7503 19.125 24.7503H25.875C26.1734 24.7503 26.4595 24.8688 26.6705 25.0798C26.8815 25.2907 27 25.5769 27 25.8753V34.8753C27 35.7704 27.3556 36.6288 27.9885 37.2617C28.6214 37.8947 29.4799 38.2503 30.375 38.2503H34.875C35.7701 38.2503 36.6285 37.8947 37.2615 37.2617C37.8944 36.6288 38.25 35.7704 38.25 34.8753V19.0015C38.2499 18.5283 38.1503 18.0604 37.9576 17.6282C37.765 17.196 37.4836 16.8092 37.1318 16.4928L24.7568 5.37326Z" fill="white"/>
</svg>
