<svg width="30" height="30" viewBox="0 0 30 30" fill="none" xmlns="http://www.w3.org/2000/svg">
<path d="M17.7248 21.2501H3.74979C3.41827 21.2501 3.10032 21.3818 2.8659 21.6162C2.63148 21.8506 2.49979 22.1686 2.49979 22.5001C2.49979 22.8316 2.63148 23.1496 2.8659 23.384C3.10032 23.6184 3.41827 23.7501 3.74979 23.7501H17.7248C17.9875 24.474 18.4668 25.0995 19.0975 25.5416C19.7282 25.9836 20.4796 26.2207 21.2498 26.2207C22.0199 26.2207 22.7714 25.9836 23.4021 25.5416C24.0328 25.0995 24.512 24.474 24.7748 23.7501H26.2498C26.5813 23.7501 26.8993 23.6184 27.1337 23.384C27.3681 23.1496 27.4998 22.8316 27.4998 22.5001C27.4998 22.1686 27.3681 21.8506 27.1337 21.6162C26.8993 21.3818 26.5813 21.2501 26.2498 21.2501H24.7748C24.512 20.5262 24.0328 19.9007 23.4021 19.4587C22.7714 19.0166 22.0199 18.7795 21.2498 18.7795C20.4796 18.7795 19.7282 19.0166 19.0975 19.4587C18.4668 19.9007 17.9875 20.5262 17.7248 21.2501ZM16.2498 3.75011C15.4761 3.75228 14.722 3.99371 14.091 4.44128C13.4599 4.88885 12.9827 5.52067 12.7248 6.25011H3.74979C3.41827 6.25011 3.10032 6.3818 2.8659 6.61622C2.63148 6.85064 2.49979 7.16859 2.49979 7.50011C2.49979 7.83163 2.63148 8.14957 2.8659 8.38399C3.10032 8.61841 3.41827 8.75011 3.74979 8.75011H12.7248C12.9875 9.47405 13.4668 10.0995 14.0975 10.5416C14.7282 10.9836 15.4796 11.2207 16.2498 11.2207C17.0199 11.2207 17.7714 10.9836 18.4021 10.5416C19.0328 10.0995 19.512 9.47405 19.7748 8.75011H26.2498C26.5813 8.75011 26.8993 8.61841 27.1337 8.38399C27.3681 8.14957 27.4998 7.83163 27.4998 7.50011C27.4998 7.16859 27.3681 6.85064 27.1337 6.61622C26.8993 6.3818 26.5813 6.25011 26.2498 6.25011H19.7748C19.5169 5.52067 19.0397 4.88885 18.4086 4.44128C17.7775 3.99371 17.0235 3.75228 16.2498 3.75011ZM6.24979 11.2501C5.56185 11.2482 4.88663 11.4355 4.29804 11.7916C3.70945 12.1478 3.23016 12.6589 2.91262 13.2692C2.59509 13.8795 2.45155 14.5653 2.49771 15.2517C2.54388 15.9381 2.77796 16.5986 3.17436 17.1608C3.57075 17.7231 4.11417 18.1655 4.74515 18.4396C5.37613 18.7137 6.07035 18.8089 6.75184 18.7149C7.43332 18.6209 8.07581 18.3412 8.60898 17.9065C9.14216 17.4717 9.54547 16.8987 9.77479 16.2501H26.2498C26.5813 16.2501 26.8993 16.1184 27.1337 15.884C27.3681 15.6496 27.4998 15.3316 27.4998 15.0001C27.4998 14.6686 27.3681 14.3506 27.1337 14.1162C26.8993 13.8818 26.5813 13.7501 26.2498 13.7501L9.77479 13.7501C9.5169 13.0207 9.0397 12.3889 8.40862 11.9413C7.77754 11.4937 7.02347 11.2523 6.24979 11.2501Z" fill="white"/>
</svg>
