<svg width="28" height="28" viewBox="0 0 28 28" fill="none" xmlns="http://www.w3.org/2000/svg">
<path d="M9.3329 3.23357C9.3329 3.23357 12.444 2.39746 13.2218 2.39746C13.9996 2.39746 17.1107 3.23357 17.1107 3.23357C17.1107 3.23357 20.2218 6.57646 20.9996 6.57646C20.9996 6.57646 22.5551 6.57646 24.1107 8.24791C25.6662 9.91935 25.6662 13.2622 25.6662 13.2622C25.6662 13.2622 27.2218 16.6051 27.2218 18.2766C27.2218 19.948 26.444 21.6195 25.6662 22.4556C24.8885 23.2917 21.7773 24.127 21.7773 24.127C21.7773 24.127 20.9996 25.7985 19.444 26.6346C14.7773 27.4707 11.6662 26.6346 11.6662 26.6346L10.1107 24.9631C10.1107 24.9631 4.66623 24.127 3.88845 24.127C3.11068 24.127 0.777344 20.7841 0.777344 19.948C0.777344 19.1119 0.777344 16.6051 1.55512 14.0976C3.11068 11.59 3.88845 10.7547 3.88845 10.7547C3.88845 10.7547 3.11068 9.08402 3.88845 7.41257C5.44401 5.74113 8.55512 4.90502 8.55512 4.90502L9.3329 3.23357Z" fill="#66757F"/>
<path d="M9.65058 3.49235C9.65058 3.49235 12.4762 2.69824 13.2081 2.69824C13.94 2.69824 17.0892 3.59191 17.0892 3.59191C17.0892 3.59191 19.869 6.72013 20.6009 6.72013C20.6009 6.72013 22.186 6.68513 23.6506 8.25935C25.1151 9.83358 24.979 12.6281 24.979 12.6281C24.979 12.6281 26.4436 15.775 26.4436 17.3485C26.4436 18.9219 25.7117 20.4961 24.9798 21.2832C24.2479 22.0704 21.3196 22.8567 21.3196 22.8567C21.3196 22.8567 20.5877 24.4301 19.1231 25.2172C14.731 26.0044 11.8027 25.2172 11.8027 25.2172L10.3389 23.6438C10.3389 23.6438 5.21491 22.8567 4.48302 22.8567C3.75113 22.8567 1.55469 19.709 1.55469 18.9219C1.55469 18.1348 1.55469 15.7742 2.28658 13.4137C3.75113 11.0531 4.48302 10.2668 4.48302 10.2668C4.48302 10.2668 3.55902 8.98891 4.29091 7.41469C5.75469 5.84124 8.86502 5.03158 8.86502 5.03158L9.65058 3.49235Z" fill="#99AAB5"/>
<path d="M9.93377 4.13128C9.93377 4.13128 12.5767 3.4375 13.2611 3.4375C13.9455 3.4375 16.891 4.21761 16.891 4.21761C16.891 4.21761 19.4903 6.94839 20.1748 6.94839C20.1748 6.94839 21.6572 6.91806 23.0269 8.29161C24.3958 9.66517 24.2698 12.1051 24.2698 12.1051C24.2698 12.1051 24.4837 15.4067 25.0382 15.5063C26.446 15.7583 25.1681 18.3942 24.4837 19.0809C23.7992 19.7677 19.0314 20.0742 19.0314 20.0742C19.0314 20.0742 19.1994 22.2169 17.8298 22.9045C13.7223 23.5913 11.9459 23.0958 11.9459 23.0958L10.577 21.7223C10.577 21.7223 7.24033 18.5357 6.55588 18.5357C5.87144 18.5357 2.36133 18.2876 2.36133 17.6008C2.36133 16.9141 2.36133 14.8529 3.04577 12.7926C4.41466 10.7323 5.09988 10.0447 5.09988 10.0447C5.09988 10.0447 4.23577 8.92861 4.92022 7.55506C6.28911 6.1815 9.19799 5.4745 9.19799 5.4745L9.93377 4.13128Z" fill="#CCD6DD"/>
<path d="M4.89254 9.79785L7.98887 11.2375L6.3711 12.3793L3.04688 12.7931L4.89254 9.79785Z" fill="#99AAB5"/>
<path d="M1.24219 17.0967C1.24219 17.0967 2.1203 20.0258 2.3513 20.3735C2.5823 20.7211 5.53941 20.473 5.90885 20.473C6.2783 20.473 8.08041 21.4165 8.08041 21.4165C8.08041 21.4165 5.67785 22.062 4.84641 21.9625C4.01497 21.8629 1.85352 21.4748 1.6583 20.9195C1.46308 20.3641 1.24219 17.0967 1.24219 17.0967Z" fill="#66757F"/>
<path d="M5.67802 7.46428C6.05913 7.34372 8.68102 6.22295 9.23557 6.27272C9.79013 6.3225 12.1468 7.66261 11.5922 8.10984C11.0377 8.55706 7.98802 8.20939 7.11068 8.20939C6.23335 8.20939 4.89246 7.71239 5.67802 7.46428ZM3.83002 13.4718C4.06568 13.0277 7.20324 12.8761 7.20324 12.8761C7.20324 12.8761 11.2695 14.5148 11.2695 14.7629C11.2695 15.0111 7.57346 16.6996 7.20324 16.7486C6.83302 16.7976 3.64491 13.8195 3.83002 13.4718ZM12.9324 16.5005C12.8592 16.1077 14.5035 13.7199 14.827 13.5216C15.1506 13.3233 19.4937 12.1807 20.2326 12.1807C20.9715 12.1807 23.3281 13.9183 23.3748 14.2659C23.4207 14.6136 21.2958 16.9967 20.7412 17.1951C20.1867 17.3942 13.0708 17.2448 12.9324 16.5005ZM17.0911 9.94617C16.9161 10.3638 21.2499 10.9394 21.7119 10.7403C22.1739 10.5419 23.0053 9.20106 22.8669 8.85339C22.7285 8.50572 21.3883 7.5125 20.6953 7.61206C20.0016 7.71239 17.5065 8.95372 17.0911 9.94617ZM13.672 3.83984C14.0594 3.92306 16.6291 4.53517 16.9527 5.03139C17.2762 5.52761 15.4282 7.06684 14.9196 7.11661C14.4117 7.16639 10.9459 5.03139 10.5765 4.78328C10.207 4.53517 12.9782 3.6905 13.672 3.83984Z" fill="#E1E8ED"/>
<path d="M10.1608 24.3946C9.83722 23.8984 10.3459 22.2596 10.6228 22.458C10.8997 22.6563 11.7319 23.2521 11.7778 23.7491C11.8237 24.2453 12.6559 25.1887 13.2563 25.4866C13.8568 25.7845 17.1374 25.7845 17.692 25.5862C18.2466 25.3879 19.54 24.2951 19.8636 23.6495C20.1871 23.004 20.5604 22.9565 21.3211 22.8562C22.0818 22.7559 22.816 23.5126 21.7784 24.1271C20.7417 24.7415 19.6326 25.8343 18.3391 26.0824C17.0457 26.3305 12.841 26.5296 12.1013 26.2317C11.3617 25.9339 10.1608 24.3946 10.1608 24.3946Z" fill="#66757F"/>
<path d="M15.7105 20.809C15.3208 20.5998 15.1754 18.8684 15.3761 18.7246C15.5767 18.5807 17.4496 18.8684 17.8844 18.94C18.3192 19.0116 20.9613 18.7961 21.2288 19.0839C21.4964 19.3717 22.1412 20.4263 22.3659 21.0602C22.5907 21.6949 21.1285 21.5992 20.5599 21.4553C19.9914 21.3114 16.2456 21.0968 15.7105 20.809ZM9.78927 9.35078C10.2972 9.35078 12.4228 9.301 12.8848 9.35078C13.3468 9.40055 14.8254 10.7904 14.1324 10.9398C13.4394 11.0891 11.5914 11.5853 11.3137 11.6351C11.0361 11.6849 10.0203 10.7414 9.69672 10.4933C9.37394 10.2444 9.23549 9.35078 9.78927 9.35078ZM15.6117 7.96089C15.8684 7.54789 16.8593 7.41489 16.9052 7.86133C16.9511 8.30855 16.6742 9.301 16.1196 9.25122C15.5651 9.20222 15.2415 8.55666 15.6117 7.96089ZM12.9315 18.4368C13.3927 18.3816 14.2716 18.2874 14.2716 18.6849C14.2716 19.0823 13.7171 19.2309 13.0699 19.1811C12.4236 19.1321 12.5154 18.4866 12.9315 18.4368Z" fill="#99AAB5"/>
<path d="M11.1302 12.926C11.5339 12.5791 12.9323 12.5285 13.2559 12.6779C13.5794 12.8272 12.8864 13.8694 12.4703 13.9192C12.0542 13.9682 10.6682 13.3226 11.1302 12.926Z" fill="#E1E8ED"/>
<path d="M20.3705 20.5216C20.8317 20.398 21.9416 20.2735 21.8949 20.6212C21.8491 20.9688 21.3871 21.6144 21.0168 21.5646C20.6466 21.5148 20.0011 20.6212 20.3705 20.5216ZM17.3675 23.9975C17.8777 23.9127 18.6609 23.5013 18.6151 23.9975C18.5692 24.4937 18.0146 25.1393 17.4134 25.0405C16.8129 24.941 16.7671 24.0963 17.3675 23.9975Z" fill="#66757F"/>
</svg>
